<?xml version="1.0" standalone="no"?>
<!DOCTYPE svg PUBLIC "-//W3C//DTD SVG 20010904//EN"
 "http://www.w3.org/TR/2001/REC-SVG-20010904/DTD/svg10.dtd">
<svg version="1.0" xmlns="http://www.w3.org/2000/svg"
 width="431.000000pt" height="388.000000pt" viewBox="0 0 431.000000 388.000000"
 preserveAspectRatio="xMidYMid meet">
<defs>
<linearGradient id="g" x1="0%" y1="0%" x2="100%" y2="100%">
<stop offset="0%" stop-color="#c93c6f"/>
<stop offset="100%" stop-color="#b04080"/>
</linearGradient>
</defs>

<g transform="translate(0.000000,388.000000) scale(0.100000,-0.100000)"
fill="url(#g)" stroke="none">
<path d="M2840 3860 c-22 -22 -26 -61 -9 -88 9 -14 -4 -43 -73 -162 -46 -80
-131 -226 -188 -325 -57 -99 -122 -211 -144 -250 -23 -38 -79 -135 -125 -215
l-83 -145 -77 -2 c-79 -2 -177 -27 -237 -63 l-31 -18 -336 337 c-315 316 -335
338 -330 366 6 42 -24 78 -65 78 -43 0 -62 -19 -62 -63 0 -48 27 -74 70 -68
30 5 40 -7 293 -311 144 -174 279 -337 300 -362 l38 -47 -50 -65 c-62 -83 -92
-161 -100 -262 -7 -90 -17 -114 -64 -149 -61 -47 -80 -50 -342 -56 -219 -4
-254 -7 -280 -23 -69 -42 -89 -107 -57 -180 36 -82 33 -81 459 -87 l371 -5 27
-25 c73 -68 73 -152 0 -220 l-27 -25 -782 -5 c-732 -5 -784 -6 -809 -23 -89
-58 -87 -190 3 -242 34 -19 55 -20 623 -25 l589 -5 32 -36 c46 -50 54 -99 24
-157 -42 -82 -41 -82 -451 -82 -386 0 -398 -2 -446 -53 -36 -39 -41 -114 -11
-163 41 -65 25 -64 682 -64 555 0 596 -1 628 -18 36 -19 80 -88 80 -127 0 -39
-44 -108 -80 -127 -31 -16 -63 -18 -313 -18 -214 0 -285 -3 -311 -14 -70 -29
-98 -134 -56 -204 41 -67 -30 -63 1253 -59 1031 3 1172 5 1251 20 241 45 382
107 503 221 88 83 133 155 159 257 14 54 16 93 10 243 -8 198 -16 227 -67 245
-20 7 -129 11 -296 11 -363 0 -353 6 -353 -203 0 -142 -13 -180 -77 -238 -108
-97 -380 -132 -650 -83 -178 32 -279 110 -299 230 -3 23 -1 325 5 670 l12 629
27 55 c65 129 238 190 542 190 298 -1 419 -78 420 -266 0 -133 26 -160 144
-157 469 13 506 17 528 56 16 30 11 245 -8 327 -50 219 -262 366 -609 421
-171 28 -661 13 -905 -27 -126 -21 -184 -18 -272 13 -43 14 -78 30 -78 33 0 4
21 52 46 106 70 150 97 207 162 349 33 72 79 171 102 220 81 172 172 370 181
393 5 14 17 22 32 22 39 0 67 27 67 66 0 41 -29 74 -65 74 -14 0 -34 -9 -45
-20z"/>
<path d="M2890 1350 c0 -203 3 -370 6 -370 3 0 117 64 253 143 135 79 277 161
314 182 38 20 65 41 60 46 -9 9 -622 369 -629 369 -2 0 -4 -166 -4 -370z"/>
</g>
</svg>
